<?xml version="1.0" encoding="UTF-8"?>
<!DOCTYPE svg PUBLIC "-//W3C//DTD SVG 1.1//EN" "http://www.w3.org/Graphics/SVG/1.1/DTD/svg11.dtd">
<!--
 DO WHAT THE FUCK YOU WANT TO PUBLIC LICENSE

 Copyright (C) 2016 Georgy Kosturov aka Geosins <geosins@yandex.ru>
-->
<svg xmlns="http://www.w3.org/2000/svg" xml:space="preserve" width="5.08mm" height="5.08mm" version="1.1" style="shape-rendering:geometricPrecision; text-rendering:geometricPrecision; image-rendering:optimizeQuality; fill-rule:evenodd; clip-rule:evenodd"
viewBox="0 0 508 508"
 xmlns:xlink="http://www.w3.org/1999/xlink">
 <defs>
  <style type="text/css">
   <![CDATA[
    .str0 {stroke:#2B2A29;stroke-width:16.93}
    .str1 {stroke:#2B2A29;stroke-width:20}
    .fil0 {fill:white}
    .fil1 {fill:white;fill-rule:nonzero}
   ]]>
  </style>
 </defs>
 <g id="Слой_x0020_1">
  <metadata id="CorelCorpID_0Corel-Layer"/>
  <rect class="fil0 str0" x="188" y="188" width="131" height="131"/>
  <path class="fil1 str1" d="M388 204l58 -58 43 42 -27 -143 -144 -27 43 42 -58 59 85 85zm29 -29m51 -8m8 -50m-86 -86m-50 8m-8 51m13 71"/>
  <path class="fil1 str1" d="M118 203l-58 -58 -43 42 27 -143 143 -27 -42 43 58 58 -85 85zm-29 -29m-51 -8m-8 -50m86 -86m50 8m8 51m-13 72"/>
  <path class="fil1 str1" d="M390 305l58 58 43 -42 -27 143 -143 27 42 -43 -58 -58 85 -85zm29 29m51 8m8 50m-86 86m-50 -8m-8 -51m13 -72"/>
  <path class="fil1 str1" d="M118 305l-58 58 -43 -42 27 143 143 27 -42 -43 58 -58 -85 -85zm-29 29m-51 8m-8 50m86 86m50 -8m8 -51m-13 -72"/>
 </g>
</svg>
