<?xml version="1.0" encoding="UTF-8"?>
<!DOCTYPE svg PUBLIC "-//W3C//DTD SVG 1.1//EN" "http://www.w3.org/Graphics/SVG/1.1/DTD/svg11.dtd">
<!--
 DO WHAT THE FUCK YOU WANT TO PUBLIC LICENSE

 Copyright (C) 2016 Georgy Kosturov aka Geosins <geosins@yandex.ru>
-->
<svg xmlns="http://www.w3.org/2000/svg" xml:space="preserve" width="16.9332mm" height="16.9332mm" version="1.1" style="shape-rendering:geometricPrecision; text-rendering:geometricPrecision; image-rendering:optimizeQuality; fill-rule:evenodd; clip-rule:evenodd"
viewBox="0 0 1693 1693"
 xmlns:xlink="http://www.w3.org/1999/xlink">
 <defs>
  <style type="text/css">
   <![CDATA[
    .fil0 {fill:black}
   ]]>
  </style>
 </defs>
 <g id="Слой_x0020_1">
  <metadata id="CorelCorpID_0Corel-Layer"/>
  <path class="fil0" d="M1377 697l-79 0 0 -195c0,-245 -200,-445 -445,-445 -245,0 -445,200 -445,445l0 195 -79 0c-25,0 -46,20 -46,46l0 863c0,26 21,46 46,46l1048 0c25,0 46,-20 46,-46l0 -863c0,-26 -21,-46 -46,-46zm-452 525l0 184c0,16 -13,29 -29,29l-86 0c-16,0 -29,-13 -29,-29l0 -184c-31,-22 -52,-59 -52,-101 0,-69 55,-124 124,-124 69,0 124,55 124,124 0,42 -20,79 -52,101zm161 -525l-465 0 0 -195c0,-128 104,-232 232,-232 128,0 233,104 233,232l0 195z"/>
 </g>
</svg>
