<?xml version="1.0" encoding="UTF-8"?>
<!DOCTYPE svg PUBLIC "-//W3C//DTD SVG 1.1//EN" "http://www.w3.org/Graphics/SVG/1.1/DTD/svg11.dtd">
<!--
 DO WHAT THE FUCK YOU WANT TO PUBLIC LICENSE

 Copyright (C) 2016 Georgy Kosturov aka Geosins <geosins@yandex.ru>
-->
<svg xmlns="http://www.w3.org/2000/svg" xml:space="preserve" width="16.9332mm" height="16.9332mm" version="1.1" style="shape-rendering:geometricPrecision; text-rendering:geometricPrecision; image-rendering:optimizeQuality; fill-rule:evenodd; clip-rule:evenodd"
viewBox="0 0 1693 1693"
 xmlns:xlink="http://www.w3.org/1999/xlink">
 <defs>
  <style type="text/css">
   <![CDATA[
    .str0 {stroke:#2B2A29;stroke-width:20}
    .fil0 {fill:black}
    .fil1 {fill:white}
   ]]>
  </style>
 </defs>
 <g id="Слой_x0020_1">
  <metadata id="CorelCorpID_0Corel-Layer"/>
  <path class="fil0" d="M769 88c45,-45 81,-30 81,34l0 1441c0,64 -36,79 -81,34l-418 -420 -277 0 0 -669 277 0 418 -420z"/>
  <g id="_986501605072">
  </g>
  <g id="_986501605296">
  </g>
  <g id="_986501606224">
  </g>
  <g id="_986501604720">
  </g>
  <g id="_986501603344">
  </g>
  <g id="_986501602736">
  </g>
  <g id="_986501602608">
  </g>
  <g id="_986501603600">
  </g>
  <g id="_986501603504">
  </g>
  <g id="_986501601648">
  </g>
  <g id="_986501601904">
  </g>
  <g id="_986501600816">
  </g>
  <g id="_986501600976">
  </g>
  <g id="_986501601872">
  </g>
  <g id="_986501602256">
  </g>
  <path class="fil1" d="M739 159c40,-40 72,-26 72,30l0 1298c0,57 -32,71 -72,30l-377 -378 -250 0 0 -602 250 0 377 -378z"/>
  <rect class="fil1 str0" transform="matrix(0.46904 -0.812401 0.812401 0.46904 159.23 1568.31)" width="1892" height="173"/>
 </g>
</svg>
