<?xml version="1.0" encoding="UTF-8"?>
<!DOCTYPE svg PUBLIC "-//W3C//DTD SVG 1.1//EN" "http://www.w3.org/Graphics/SVG/1.1/DTD/svg11.dtd">
<!--
 DO WHAT THE FUCK YOU WANT TO PUBLIC LICENSE

 Copyright (C) 2016 Georgy Kosturov aka Geosins <geosins@yandex.ru>
-->
<svg xmlns="http://www.w3.org/2000/svg" xml:space="preserve" width="16.9332mm" height="16.9332mm" version="1.1" style="shape-rendering:geometricPrecision; text-rendering:geometricPrecision; image-rendering:optimizeQuality; fill-rule:evenodd; clip-rule:evenodd"
viewBox="0 0 1693 1693"
 xmlns:xlink="http://www.w3.org/1999/xlink">
 <defs>
  <style type="text/css">
   <![CDATA[
    .fil0 {fill:black}
   ]]>
  </style>
 </defs>
 <g id="Слой_x0020_1">
  <metadata id="CorelCorpID_0Corel-Layer"/>
  <path class="fil0" d="M1086 697l-48 -336c-1,-9 -12,-14 -18,-21 -43,-43 -102,-70 -167,-70 -128,0 -232,104 -232,232l0 195 465 0zm-161 525c32,-22 52,-59 52,-101 0,-69 -55,-124 -124,-124 -69,0 -124,55 -124,124 0,42 21,79 52,101l0 184c0,16 13,29 29,29l86 0c16,0 29,-13 29,-29l0 -184zm452 -525c25,0 46,20 46,46l0 863c0,26 -21,46 -46,46l-1048 0c-25,0 -46,-20 -46,-46l0 -863c0,-26 21,-46 46,-46l79 0 0 -195c0,-245 200,-445 445,-445 131,0 249,57 331,148 7,8 29,18 20,24l-166 132 48 336 291 0z"/>
 </g>
</svg>
