<?xml version="1.0" encoding="UTF-8"?>
<!DOCTYPE svg PUBLIC "-//W3C//DTD SVG 1.1//EN" "http://www.w3.org/Graphics/SVG/1.1/DTD/svg11.dtd">
<!--
 DO WHAT THE FUCK YOU WANT TO PUBLIC LICENSE

 Copyright (C) 2016 Georgy Kosturov aka Geosins <geosins@yandex.ru>
-->
<svg xmlns="http://www.w3.org/2000/svg" xml:space="preserve" width="17mm" height="17mm" version="1.1" style="shape-rendering:geometricPrecision; text-rendering:geometricPrecision; image-rendering:optimizeQuality; fill-rule:evenodd; clip-rule:evenodd"
viewBox="0 0 1700 1700"
 xmlns:xlink="http://www.w3.org/1999/xlink">
 <defs>
  <style type="text/css">
   <![CDATA[
    .str0 {stroke:black;stroke-width:50}
    .fil0 {fill:white}
   ]]>
  </style>
 </defs>
 <g id="Слой_x0020_1">
  <metadata id="CorelCorpID_0Corel-Layer"/>
  <path class="fil0 str0" d="M1324 1402c-73,0 -112,-90 -59,-143 227,-228 227,-599 0,-827 -77,-78 40,-196 118,-118 141,142 219,331 219,532 0,137 -118,556 -278,556zm-296 -158c-21,0 -42,-8 -58,-24 -33,-33 -33,-86 0,-118 140,-142 140,-371 0,-513 -33,-32 -33,-85 0,-118 32,-32 85,-32 117,0 206,207 206,542 0,749 -16,16 -37,24 -59,24zm-256 -1153c45,-45 81,-30 81,34l0 1441c0,64 -36,79 -81,34l-418 -420 -277 0 0 -669 277 0 418 -420z"/>
  <g id="_986501605072">
  </g>
  <g id="_986501605296">
  </g>
  <g id="_986501606224">
  </g>
  <g id="_986501604720">
  </g>
  <g id="_986501603344">
  </g>
  <g id="_986501602736">
  </g>
  <g id="_986501602608">
  </g>
  <g id="_986501603600">
  </g>
  <g id="_986501603504">
  </g>
  <g id="_986501601648">
  </g>
  <g id="_986501601904">
  </g>
  <g id="_986501600816">
  </g>
  <g id="_986501600976">
  </g>
  <g id="_986501601872">
  </g>
  <g id="_986501602256">
  </g>
 </g>
</svg>
