<?xml version="1.0" encoding="UTF-8"?>
<!DOCTYPE svg PUBLIC "-//W3C//DTD SVG 1.1//EN" "http://www.w3.org/Graphics/SVG/1.1/DTD/svg11.dtd">
<!--
 DO WHAT THE FUCK YOU WANT TO PUBLIC LICENSE

 Copyright (C) 2016 Georgy Kosturov aka Geosins <geosins@yandex.ru>
-->
<svg xmlns="http://www.w3.org/2000/svg" xml:space="preserve" width="160mm" height="150mm" version="1.1" style="shape-rendering:geometricPrecision; text-rendering:geometricPrecision; image-rendering:optimizeQuality; fill-rule:evenodd; clip-rule:evenodd"
viewBox="0 0 16000 15000"
 xmlns:xlink="http://www.w3.org/1999/xlink">
 <defs>
  <style type="text/css">
   <![CDATA[
    .str0 {stroke:#2B2A29;stroke-width:500}
    .str2 {stroke:#2B2A29;stroke-width:20}
    .str1 {stroke:#2B2A29;stroke-width:500}
    .fil0 {fill:none}
    .fil1 {fill:#2B2A29}
   ]]>
  </style>
 </defs>
 <g id="Слой_x0020_1">
  <metadata id="CorelCorpID_0Corel-Layer"/>
  <path class="fil0 str0" d="M5712 833c584,-157 1186,-236 1791,-236 3130,0 5870,2104 6681,5129"/>
  <path class="fil0 str0" d="M14184 9309c-811,3026 -3551,5129 -6681,5129 -605,0 -1207,-79 -1791,-235"/>
  <path class="fil0 str0" d="M2612 12411c-1298,-1298 -2026,-3058 -2026,-4893 0,-1836 728,-3596 2026,-4894"/>
  <g id="_210405261936">
   <line class="fil0 str1" x1="5690" y1="2582" x2="12781" y2= "6541" />
  </g>
  <g id="_210405262672">
   <line class="fil0 str1" x1="5725" y1="12334" x2="12793" y2= "8191" />
  </g>
  <g id="_210405258768">
   <line class="fil0 str1" x1="4233" y1="3441" x2="4233" y2= "11567" />
  </g>
  <ellipse class="fil1 str2" cx="4073" cy="1643" rx="1151" ry="1152"/>
  <ellipse class="fil1 str2" cx="14434" cy="7580" rx="1151" ry="1152"/>
  <ellipse class="fil1 str2" cx="4233" cy="13339" rx="1151" ry="1152"/>
 </g>
</svg>